HIERARCHY
ROOT Hips
{
	OFFSET 0.000000 0.000000 0.000000
	CHANNELS 6 Xposition Yposition Zposition Zrotation Yrotation Xrotation 
	JOINT LHipJoint
	{
		OFFSET 0.000000 0.000000 0.000000
		CHANNELS 3 Zrotation Yrotation Xrotation
		JOINT LeftUpLeg
		{
			OFFSET 1.363060 -1.794630 0.839290
			CHANNELS 3 Zrotation Yrotation Xrotation
			JOINT LeftLeg
			{
				OFFSET 2.448110 -6.726130 0.000000
				CHANNELS 3 Zrotation Yrotation Xrotation
				JOINT LeftFoot
				{
					OFFSET 2.562200 -7.039590 0.000000
					CHANNELS 3 Zrotation Yrotation Xrotation
					JOINT LeftToeBase
					{
						OFFSET 0.157640 -0.433110 2.322550
						CHANNELS 3 Zrotation Yrotation Xrotation
						End Site
						{
							OFFSET 0.000000 0.000000 0.000000
						}
					}
				}
			}
		}
	}
	JOINT RHipJoint
	{
		OFFSET 0.000000 0.000000 0.000000
		CHANNELS 3 Zrotation Yrotation Xrotation
		JOINT RightUpLeg
		{
			OFFSET -1.305520 -1.794630 0.839290
			CHANNELS 3 Zrotation Yrotation Xrotation
			JOINT RightLeg
			{
				OFFSET -2.542530 -6.985550 0.000000
				CHANNELS 3 Zrotation Yrotation Xrotation
				JOINT RightFoot
				{
					OFFSET -2.568260 -7.056230 0.000000
					CHANNELS 3 Zrotation Yrotation Xrotation
					JOINT RightToeBase
					{
						OFFSET -0.164730 -0.452590 2.363150
						CHANNELS 3 Zrotation Yrotation Xrotation
						End Site
						{
							OFFSET 0.000000 0.000000 0.000000
						}
					}
				}
			}
		}
	}
	JOINT LowerBack
	{
		OFFSET 0.000000 0.000000 0.000000
		CHANNELS 3 Zrotation Yrotation Xrotation
		JOINT Spine
		{
			OFFSET 0.028270 2.035590 -0.193380
			CHANNELS 3 Zrotation Yrotation Xrotation
			JOINT Spine1
			{
				OFFSET 0.056720 2.048850 -0.042750
				CHANNELS 3 Zrotation Yrotation Xrotation
				JOINT Neck
				{
					OFFSET 0.000000 0.000000 0.000000
					CHANNELS 3 Zrotation Yrotation Xrotation
					JOINT Neck1
					{
						OFFSET -0.054170 1.746240 0.172020
						CHANNELS 3 Zrotation Yrotation Xrotation
						JOINT Head
						{
							OFFSET 0.104070 1.761360 -0.123970
							CHANNELS 3 Zrotation Yrotation Xrotation
							End Site
							{
								OFFSET 0.000000 0.000000 0.000000
							}
						}
					}
				}
				JOINT LeftShoulder
				{
					OFFSET 0.000000 0.000000 0.000000
					CHANNELS 3 Zrotation Yrotation Xrotation
					JOINT LeftArm
					{
						OFFSET 3.362410 1.200890 -0.311210
						CHANNELS 3 Zrotation Yrotation Xrotation
						JOINT LeftForeArm
						{
							OFFSET 4.983000 -0.000000 -0.000000
							CHANNELS 3 Zrotation Yrotation Xrotation
							JOINT LeftHand
							{
								OFFSET 3.483560 -0.000000 -0.000000
								CHANNELS 3 Zrotation Yrotation Xrotation
								JOINT LeftFingerBase
								{
									OFFSET 0.000000 0.000000 0.000000
									CHANNELS 3 Zrotation Yrotation Xrotation
									JOINT LeftHandIndex1
									{
										OFFSET 0.715260 -0.000000 -0.000000
										CHANNELS 3 Zrotation Yrotation Xrotation
										End Site
										{
											OFFSET 0.000000 0.000000 0.000000
										}
									}
								}
								JOINT LThumb
								{
									OFFSET 0.000000 0.000000 0.000000
									CHANNELS 3 Zrotation Yrotation Xrotation
									End Site
									{
										OFFSET 0.000000 0.000000 0.000000
									}
								}
							}
						}
					}
				}
				JOINT RightShoulder
				{
					OFFSET 0.000000 0.000000 0.000000
					CHANNELS 3 Zrotation Yrotation Xrotation
					JOINT RightArm
					{
						OFFSET -3.136600 1.374050 -0.404650
						CHANNELS 3 Zrotation Yrotation Xrotation
						JOINT RightForeArm
						{
							OFFSET -5.241900 -0.000000 -0.000000
							CHANNELS 3 Zrotation Yrotation Xrotation
							JOINT RightHand
							{
								OFFSET -3.444170 -0.000000 -0.000000
								CHANNELS 3 Zrotation Yrotation Xrotation
								JOINT RightFingerBase
								{
									OFFSET 0.000000 0.000000 0.000000
									CHANNELS 3 Zrotation Yrotation Xrotation
									JOINT RightHandIndex1
									{
										OFFSET -0.622530 -0.000000 -0.000000
										CHANNELS 3 Zrotation Yrotation Xrotation
										End Site
										{
											OFFSET 0.000000 0.000000 0.000000
										}
									}
								}
								JOINT RThumb
								{
									OFFSET 0.000000 0.000000 0.000000
									CHANNELS 3 Zrotation Yrotation Xrotation
									End Site
									{
										OFFSET 0.000000 0.000000 0.000000
									}
								}
							}
						}
					}
				}
			}
		}
	}
}
MOTION
Frames: 6
Frame Time: 0.008333
-0.409388 18.382682 8.190602 -9.384923 -0.136639 11.340914 7.668142 4.718862 -1.529451 -21.284294 -38.887039 18.992928 -3.680938 -2.501423 -2.686114 -13.552845 42.070878 -23.356986 0.127400 2.301200 6.338700 -0.164951 -4.761072 0.534334 24.964776 26.811097 3.585523 3.468659 -0.479781 2.728587 6.763166 -22.423113 -1.756561 -0.004100 -0.412300 1.133000 -4.878170 1.069816 8.183842 27.246270 5.663583 -18.855606 -12.955919 -1.963563 -11.302546 -28.989729 -15.437931 -3.092035 26.036269 -26.065479 22.724591 5.094400 -11.347700 8.359000 -10.026291 -6.156102 0.739659 -86.700434 10.971905 8.144237 12.463054 -14.299414 -2.210059 -0.445063 1.209389 23.462478 16.831434 -6.273605 -2.298500 -7.125000 0.000000 0.000000 -6.626400 22.425600 3.621000 11.907802 7.291139 1.095754 79.593543 -12.773309 -16.786861 -9.321425 12.443066 -1.336035 1.220410 0.657108 58.724301 3.260594 -28.129054 -1.573300 7.125000 0.000000 0.000000 36.282400 -55.561700 -10.390900 
-0.408863 18.382157 8.188712 -9.368629 -0.167719 11.327083 7.635920 4.728062 -1.494862 -21.293726 -38.973817 19.031152 -3.682961 -2.503243 -2.687426 -13.540050 42.070635 -23.523908 0.136500 2.380900 6.559600 -0.189219 -4.760932 0.550576 24.951121 26.769689 3.553616 3.468468 -0.471760 2.720734 6.750308 -22.383114 -1.705475 -0.004400 -0.429500 1.180100 -4.765894 1.045858 8.127073 27.059965 5.569294 -18.655260 -12.960947 -1.980307 -11.451406 -30.243414 -15.463108 -3.374156 27.484606 -26.446371 23.675356 5.504500 -11.383900 8.882600 -9.958105 -6.113693 0.741340 -86.690334 10.964528 8.103713 12.442626 -14.270514 -2.202872 -0.453095 1.214094 23.531969 16.901343 -6.225710 -2.294400 -7.125000 0.000000 0.000000 -6.568700 22.471800 3.582100 12.066328 7.319166 1.103144 79.579515 -12.815599 -16.983160 -9.335760 12.444612 -1.337353 1.225566 0.657633 58.842859 3.298218 -28.221063 -1.597000 7.125000 0.000000 0.000000 36.399000 -55.633000 -10.497600 
-0.409493 18.382157 8.187242 -9.380060 -0.184902 11.328423 7.632697 4.727900 -1.485588 -21.238467 -38.942225 18.973857 -3.682267 -2.501779 -2.682028 -13.534008 42.053018 -23.506497 0.130700 2.330200 6.419000 -0.188559 -4.761842 0.555691 24.961351 26.784738 3.538876 3.467910 -0.473987 2.724586 6.752779 -22.393003 -1.688025 -0.004500 -0.431100 1.184700 -4.759101 1.045613 8.126983 27.086413 5.552109 -18.587698 -12.967928 -1.993798 -11.528290 -30.645390 -15.470136 -3.521779 27.892630 -26.552670 24.026158 5.633400 -11.386700 9.073800 -9.940803 -6.096037 0.742440 -86.726291 10.964908 8.061737 12.430610 -14.252351 -2.198704 -0.454620 1.217873 23.570929 16.927077 -6.223421 -2.298500 -7.125000 0.000000 0.000000 -6.547300 22.470400 3.570500 12.089478 7.329716 1.110370 79.578999 -12.869512 -17.114365 -9.348334 12.460554 -1.341707 1.230662 0.661622 58.917576 3.391278 -28.350837 -1.651300 7.125000 0.000000 0.000000 36.602400 -55.724700 -10.654400 
-0.409598 18.382157 8.187242 -9.385880 -0.203277 11.331535 7.634085 4.726990 -1.483998 -21.196350 -38.879241 18.917052 -3.681583 -2.499646 -2.674929 -13.513586 42.006679 -23.465889 0.129300 2.318100 6.385600 -0.186856 -4.762331 0.556131 24.965849 26.795816 3.544023 3.467911 -0.470817 2.715669 6.751318 -22.391839 -1.671043 -0.004300 -0.425000 1.167800 -4.763491 1.050941 8.124712 27.101030 5.557665 -18.576408 -12.970140 -1.992725 -11.536974 -30.590407 -15.472363 -3.574215 27.828065 -26.538420 24.073232 5.612500 -11.377200 9.078500 -9.943762 -6.092547 0.742488 -86.751333 10.967633 8.006761 12.435687 -14.259570 -2.202193 -0.436955 1.225505 23.653878 16.870569 -6.356556 -2.335400 -7.125000 0.000000 0.000000 -6.594200 22.321600 3.619000 12.081989 7.327556 1.111388 79.585106 -12.904767 -17.256314 -9.341432 12.453382 -1.341939 1.235498 0.666357 58.963719 3.502442 -28.456755 -1.713800 7.125000 0.000000 0.000000 36.803200 -55.793300 -10.789700 
-0.409493 18.381737 8.187557 -9.381262 -0.208017 11.339573 7.634842 4.728035 -1.483766 -21.181442 -38.848953 18.887276 -3.680629 -2.498809 -2.675480 -13.513322 41.998831 -23.416638 0.128800 2.313800 6.373800 -0.186338 -4.763159 0.556619 24.957804 26.805673 3.559517 3.469873 -0.457663 2.682127 6.755891 -22.405682 -1.672900 -0.004700 -0.441300 1.212700 -4.764466 1.050039 8.105853 27.102495 5.559219 -18.575084 -12.972753 -1.992258 -11.526203 -30.578148 -15.467849 -3.585277 27.824904 -26.526449 24.073533 5.610900 -11.370100 9.076500 -9.944952 -6.093047 0.742357 -86.781378 10.951580 7.933623 12.437870 -14.260701 -2.204029 -0.412612 1.231484 23.763566 16.761351 -6.502844 -2.368000 -7.125000 0.000000 0.000000 -6.683900 22.160900 3.693500 12.081211 7.327336 1.110812 79.587666 -12.955108 -17.355388 -9.336862 12.448161 -1.341589 1.237950 0.666518 58.980457 3.514035 -28.509302 -1.722100 7.125000 0.000000 0.000000 36.859900 -55.835300 -10.849500 
-0.409808 18.381422 8.187452 -9.383124 -0.204020 11.347976 7.642413 4.731130 -1.484280 -21.223582 -38.906583 18.942636 -3.681016 -2.506554 -2.697794 -13.573249 42.112826 -23.415161 0.121800 2.250000 6.197000 -0.178310 -4.765104 0.560470 24.953957 26.832680 3.570693 3.471451 -0.450718 2.662107 6.764929 -22.430820 -1.694169 -0.005500 -0.479900 1.318700 -4.794740 1.045783 8.078325 27.182384 5.558946 -18.545594 -12.983778 -2.001287 -11.525487 -30.632396 -15.457449 -3.583843 27.861864 -26.509679 24.046646 5.629200 -11.362600 9.079200 -9.946298 -6.095274 0.737153 -86.829710 10.940892 7.914294 12.453619 -14.277137 -2.207457 -0.403405 1.222925 23.750529 16.659887 -6.499382 -2.349400 -7.125000 0.000000 0.000000 -6.766800 22.173800 3.737900 12.064396 7.330685 1.110365 79.577486 -12.996089 -17.482428 -9.336155 12.449927 -1.342165 1.239374 0.664082 59.096173 3.532412 -28.541261 -1.733000 7.125000 0.000000 0.000000 36.904500 -55.857700 -10.886400 
